<svg width="242" height="169" viewBox="0 0 242 169" fill="none" xmlns="http://www.w3.org/2000/svg">
<g clip-path="url(#clip0)">
<path d="M4 0.5H238C239.933 0.5 241.5 2.067 241.5 4V165C241.5 166.933 239.933 168.5 238 168.5H3.99999C2.067 168.5 0.5 166.933 0.5 165V4C0.5 2.067 2.067 0.5 4 0.5Z" fill="white" stroke="#F1F1F1"/>
<path d="M21.2875 8H7.33313C7.1539 8 7.00861 8.14529 7.00861 8.32452V22.2788C7.00861 22.4581 7.1539 22.6034 7.33313 22.6034H21.2875C21.4667 22.6034 21.612 22.4581 21.612 22.2788V8.32452C21.612 8.14529 21.4667 8 21.2875 8Z" fill="url(#paint0_linear)"/>
<path d="M11.0084 14.8432V13.8988H12.8942V19.3118L12.6327 19.0626L11.3272 17.8186L9.1991 15.7957V11.6508H19.4215V15.7957L19.3751 15.8398L17.2906 17.8213L15.7235 19.3147V13.8658H17.6116V14.8102H17.4577H16.7535V17.0587L18.4629 15.3881V12.5957L15.3899 12.5954H14.8181V20.17L14.3114 20.6563L13.7877 20.1569V12.5954H13.2305L10.1574 12.5957V15.3881L11.864 17.0556V14.8432H11.0084Z" fill="white"/>
<path d="M29.4873 12.3669H27.2339V11.2246H33.0492V12.3669H30.7958V18.5769H29.4873V12.3669ZM32.5576 16.0639C32.5576 15.6692 32.6268 15.3127 32.7653 14.9942C32.9107 14.6689 33.1045 14.3919 33.3468 14.1635C33.5891 13.935 33.8764 13.7585 34.2088 13.6339C34.5411 13.5092 34.8941 13.4469 35.268 13.4469C35.6418 13.4469 35.9949 13.5092 36.3272 13.6339C36.6595 13.7585 36.9468 13.935 37.1891 14.1635C37.4314 14.3919 37.6218 14.6689 37.7603 14.9942C37.9057 15.3127 37.9784 15.6692 37.9784 16.0639C37.9784 16.4585 37.9057 16.8185 37.7603 17.1439C37.6218 17.4692 37.4314 17.7496 37.1891 17.985C36.9468 18.2135 36.6595 18.3935 36.3272 18.525C35.9949 18.6566 35.6418 18.7223 35.268 18.7223C34.8941 18.7223 34.5411 18.6566 34.2088 18.525C33.8764 18.3935 33.5891 18.2135 33.3468 17.985C33.1045 17.7496 32.9107 17.4692 32.7653 17.1439C32.6268 16.8185 32.5576 16.4585 32.5576 16.0639ZM33.8245 16.0639C33.8245 16.2577 33.8522 16.4516 33.9076 16.6454C33.9699 16.8392 34.0599 17.0123 34.1776 17.1646C34.2953 17.3169 34.4441 17.4416 34.6241 17.5385C34.8041 17.6354 35.0188 17.6839 35.268 17.6839C35.5172 17.6839 35.7318 17.6354 35.9118 17.5385C36.0918 17.4416 36.2407 17.3169 36.3584 17.1646C36.4761 17.0123 36.5626 16.8392 36.618 16.6454C36.6803 16.4516 36.7114 16.2577 36.7114 16.0639C36.7114 15.87 36.6803 15.6796 36.618 15.4927C36.5626 15.2989 36.4761 15.1258 36.3584 14.9735C36.2407 14.8212 36.0918 14.7 35.9118 14.61C35.7318 14.5131 35.5172 14.4646 35.268 14.4646C35.0188 14.4646 34.8041 14.5131 34.6241 14.61C34.4441 14.7 34.2953 14.8212 34.1776 14.9735C34.0599 15.1258 33.9699 15.2989 33.9076 15.4927C33.8522 15.6796 33.8245 15.87 33.8245 16.0639ZM38.4701 14.5892V13.5923H39.3424V12.1489H40.5678V13.5923H41.8139V14.5892H40.5678V16.905C40.5678 17.1266 40.6059 17.31 40.682 17.4554C40.7651 17.6008 40.9451 17.6735 41.222 17.6735C41.3051 17.6735 41.3951 17.6666 41.492 17.6527C41.5889 17.6319 41.6755 17.6042 41.7516 17.5696L41.7932 18.5458C41.6824 18.5873 41.5509 18.6185 41.3986 18.6392C41.2462 18.6669 41.1009 18.6808 40.9624 18.6808C40.6301 18.6808 40.3601 18.6358 40.1524 18.5458C39.9447 18.4489 39.7786 18.3208 39.6539 18.1616C39.5362 17.9954 39.4532 17.8085 39.4047 17.6008C39.3632 17.3862 39.3424 17.1577 39.3424 16.9154V14.5892H38.4701ZM42.7365 10.7262H43.9827V18.5769H42.7365V10.7262ZM49.0045 15.5862C49.0045 15.4269 48.9802 15.2746 48.9318 15.1292C48.8902 14.9839 48.821 14.8558 48.7241 14.745C48.6272 14.6342 48.5026 14.5477 48.3502 14.4854C48.2049 14.4162 48.0318 14.3816 47.831 14.3816C47.4572 14.3816 47.1387 14.4958 46.8756 14.7242C46.6195 14.9458 46.4776 15.2331 46.4499 15.5862H49.0045ZM50.2506 16.1469C50.2506 16.2023 50.2506 16.2577 50.2506 16.3131C50.2506 16.3685 50.2472 16.4239 50.2402 16.4792H46.4499C46.4637 16.6592 46.5087 16.8254 46.5849 16.9777C46.6679 17.1231 46.7752 17.2512 46.9068 17.3619C47.0383 17.4658 47.1872 17.5489 47.3533 17.6112C47.5195 17.6735 47.6926 17.7046 47.8726 17.7046C48.1841 17.7046 48.4472 17.6492 48.6618 17.5385C48.8764 17.4208 49.0529 17.2616 49.1914 17.0608L50.0222 17.7254C49.5306 18.39 48.8176 18.7223 47.8829 18.7223C47.4952 18.7223 47.1387 18.6635 46.8133 18.5458C46.4879 18.4212 46.2041 18.2481 45.9618 18.0266C45.7264 17.805 45.5395 17.535 45.401 17.2166C45.2695 16.8912 45.2037 16.5242 45.2037 16.1158C45.2037 15.7142 45.2695 15.3508 45.401 15.0254C45.5395 14.6931 45.7264 14.4127 45.9618 14.1842C46.1972 13.9489 46.4741 13.7689 46.7926 13.6442C47.1179 13.5127 47.4676 13.4469 47.8414 13.4469C48.1876 13.4469 48.506 13.5058 48.7968 13.6235C49.0945 13.7342 49.3506 13.9039 49.5652 14.1323C49.7799 14.3539 49.946 14.6342 50.0637 14.9735C50.1883 15.3058 50.2506 15.6969 50.2506 16.1469ZM54.116 11.2246H58.9864V12.3669H55.4244V14.2362H58.7994V15.3369H55.4244V17.4139H59.1733V18.5769H54.116V11.2246ZM61.6589 15.9289L59.8623 13.5923H61.3577L62.4377 15.1396L63.5489 13.5923H64.9819L63.1958 15.9289L65.2312 18.5769H63.715L62.4169 16.7596L61.1085 18.5769H59.6339L61.6589 15.9289ZM67.1638 13.5923V14.2881H67.195C67.2573 14.1912 67.3369 14.0942 67.4338 13.9973C67.5377 13.8935 67.6623 13.8035 67.8077 13.7273C67.9531 13.6442 68.1158 13.5785 68.2958 13.53C68.4827 13.4746 68.6904 13.4469 68.9188 13.4469C69.2719 13.4469 69.5973 13.5162 69.895 13.6546C70.1927 13.7862 70.4488 13.9696 70.6635 14.205C70.8781 14.4404 71.0442 14.7173 71.1619 15.0358C71.2796 15.3542 71.3385 15.6969 71.3385 16.0639C71.3385 16.4308 71.2796 16.7769 71.1619 17.1023C71.0511 17.4208 70.8885 17.7012 70.6738 17.9435C70.4661 18.1789 70.21 18.3692 69.9054 18.5146C69.6077 18.6531 69.2685 18.7223 68.8877 18.7223C68.5346 18.7223 68.2092 18.6496 67.9115 18.5042C67.6208 18.3589 67.3958 18.1616 67.2365 17.9123H67.2158V21.0692H65.9696V13.5923H67.1638ZM70.0715 16.0639C70.0715 15.87 70.0404 15.6796 69.9781 15.4927C69.9227 15.2989 69.8361 15.1258 69.7185 14.9735C69.6008 14.8212 69.4519 14.7 69.2719 14.61C69.0919 14.5131 68.8808 14.4646 68.6385 14.4646C68.41 14.4646 68.2058 14.5131 68.0258 14.61C67.8458 14.7069 67.69 14.8316 67.5585 14.9839C67.4338 15.1362 67.3369 15.3092 67.2677 15.5031C67.2054 15.6969 67.1742 15.8908 67.1742 16.0846C67.1742 16.2785 67.2054 16.4723 67.2677 16.6662C67.3369 16.8531 67.4338 17.0227 67.5585 17.175C67.69 17.3273 67.8458 17.4519 68.0258 17.5489C68.2058 17.6389 68.41 17.6839 68.6385 17.6839C68.8808 17.6839 69.0919 17.6354 69.2719 17.5385C69.4519 17.4416 69.6008 17.3169 69.7185 17.1646C69.8361 17.0123 69.9227 16.8392 69.9781 16.6454C70.0404 16.4516 70.0715 16.2577 70.0715 16.0639ZM72.5619 10.7262H73.808V18.5769H72.5619V10.7262ZM75.0291 16.0639C75.0291 15.6692 75.0983 15.3127 75.2367 14.9942C75.3821 14.6689 75.576 14.3919 75.8183 14.1635C76.0606 13.935 76.3479 13.7585 76.6802 13.6339C77.0125 13.5092 77.3656 13.4469 77.7394 13.4469C78.1133 13.4469 78.4664 13.5092 78.7987 13.6339C79.131 13.7585 79.4183 13.935 79.6606 14.1635C79.9029 14.3919 80.0933 14.6689 80.2317 14.9942C80.3771 15.3127 80.4498 15.6692 80.4498 16.0639C80.4498 16.4585 80.3771 16.8185 80.2317 17.1439C80.0933 17.4692 79.9029 17.7496 79.6606 17.985C79.4183 18.2135 79.131 18.3935 78.7987 18.525C78.4664 18.6566 78.1133 18.7223 77.7394 18.7223C77.3656 18.7223 77.0125 18.6566 76.6802 18.525C76.3479 18.3935 76.0606 18.2135 75.8183 17.985C75.576 17.7496 75.3821 17.4692 75.2367 17.1439C75.0983 16.8185 75.0291 16.4585 75.0291 16.0639ZM76.296 16.0639C76.296 16.2577 76.3237 16.4516 76.3791 16.6454C76.4414 16.8392 76.5314 17.0123 76.6491 17.1646C76.7667 17.3169 76.9156 17.4416 77.0956 17.5385C77.2756 17.6354 77.4902 17.6839 77.7394 17.6839C77.9887 17.6839 78.2033 17.6354 78.3833 17.5385C78.5633 17.4416 78.7121 17.3169 78.8298 17.1646C78.9475 17.0123 79.0341 16.8392 79.0894 16.6454C79.1517 16.4516 79.1829 16.2577 79.1829 16.0639C79.1829 15.87 79.1517 15.6796 79.0894 15.4927C79.0341 15.2989 78.9475 15.1258 78.8298 14.9735C78.7121 14.8212 78.5633 14.7 78.3833 14.61C78.2033 14.5131 77.9887 14.4646 77.7394 14.4646C77.4902 14.4646 77.2756 14.5131 77.0956 14.61C76.9156 14.7 76.7667 14.8212 76.6491 14.9735C76.5314 15.1258 76.4414 15.2989 76.3791 15.4927C76.3237 15.6796 76.296 15.87 76.296 16.0639ZM81.6581 13.5923H82.8523V14.4231H82.8731C83.0115 14.1323 83.2054 13.8969 83.4546 13.7169C83.7039 13.5369 83.9946 13.4469 84.3269 13.4469C84.3754 13.4469 84.4273 13.4504 84.4827 13.4573C84.5381 13.4573 84.5865 13.4642 84.6281 13.4781V14.6204C84.545 14.5996 84.4723 14.5858 84.41 14.5789C84.3546 14.5719 84.2992 14.5685 84.2439 14.5685C83.96 14.5685 83.7315 14.6204 83.5585 14.7242C83.3854 14.8281 83.2504 14.9527 83.1535 15.0981C83.0565 15.2435 82.9908 15.3923 82.9562 15.5446C82.9215 15.6969 82.9042 15.8181 82.9042 15.9081V18.5769H81.6581V13.5923ZM88.7682 15.5862C88.7682 15.4269 88.744 15.2746 88.6955 15.1292C88.654 14.9839 88.5848 14.8558 88.4878 14.745C88.3909 14.6342 88.2663 14.5477 88.114 14.4854C87.9686 14.4162 87.7955 14.3816 87.5948 14.3816C87.2209 14.3816 86.9025 14.4958 86.6394 14.7242C86.3832 14.9458 86.2413 15.2331 86.2136 15.5862H88.7682ZM90.0144 16.1469C90.0144 16.2023 90.0144 16.2577 90.0144 16.3131C90.0144 16.3685 90.0109 16.4239 90.004 16.4792H86.2136C86.2275 16.6592 86.2725 16.8254 86.3486 16.9777C86.4317 17.1231 86.539 17.2512 86.6705 17.3619C86.8021 17.4658 86.9509 17.5489 87.1171 17.6112C87.2832 17.6735 87.4563 17.7046 87.6363 17.7046C87.9478 17.7046 88.2109 17.6492 88.4255 17.5385C88.6401 17.4208 88.8167 17.2616 88.9551 17.0608L89.7859 17.7254C89.2944 18.39 88.5813 18.7223 87.6467 18.7223C87.259 18.7223 86.9025 18.6635 86.5771 18.5458C86.2517 18.4212 85.9678 18.2481 85.7255 18.0266C85.4901 17.805 85.3032 17.535 85.1648 17.2166C85.0332 16.8912 84.9675 16.5242 84.9675 16.1158C84.9675 15.7142 85.0332 15.3508 85.1648 15.0254C85.3032 14.6931 85.4901 14.4127 85.7255 14.1842C85.9609 13.9489 86.2378 13.7689 86.5563 13.6442C86.8817 13.5127 87.2313 13.4469 87.6051 13.4469C87.9513 13.4469 88.2698 13.5058 88.5605 13.6235C88.8582 13.7342 89.1144 13.9039 89.329 14.1323C89.5436 14.3539 89.7098 14.6342 89.8275 14.9735C89.9521 15.3058 90.0144 15.6969 90.0144 16.1469ZM91.2213 13.5923H92.4155V14.4231H92.4363C92.5747 14.1323 92.7686 13.8969 93.0178 13.7169C93.267 13.5369 93.5578 13.4469 93.8901 13.4469C93.9386 13.4469 93.9905 13.4504 94.0459 13.4573C94.1013 13.4573 94.1497 13.4642 94.1913 13.4781V14.6204C94.1082 14.5996 94.0355 14.5858 93.9732 14.5789C93.9178 14.5719 93.8624 14.5685 93.807 14.5685C93.5232 14.5685 93.2947 14.6204 93.1216 14.7242C92.9486 14.8281 92.8136 14.9527 92.7166 15.0981C92.6197 15.2435 92.554 15.3923 92.5193 15.5446C92.4847 15.6969 92.4674 15.8181 92.4674 15.9081V18.5769H91.2213V13.5923Z" fill="#273340"/>
<rect x="14" y="100" width="104" height="60" rx="4.36364" fill="#E8E9EB"/>
<rect x="15" y="66" width="36" height="10" rx="1" fill="white" stroke="#E8E9EB" stroke-width="2"/>
<rect x="57" y="66" width="36" height="10" rx="1" fill="white" stroke="#E8E9EB" stroke-width="2"/>
<rect x="111" y="66" width="36" height="10" rx="1" fill="white" stroke="#E8E9EB" stroke-width="2"/>
<rect x="153" y="66" width="36" height="10" rx="1" fill="white" stroke="#E8E9EB" stroke-width="2"/>
<mask id="path-10-inside-1" fill="white">
<path fill-rule="evenodd" clip-rule="evenodd" d="M125 100C123.895 100 123 100.895 123 102V115.364V121V155.636C123 158.046 124.954 160 127.364 160H222.636C225.046 160 227 158.046 227 155.636V115.364C227 112.954 225.046 111 222.636 111H150V102C150 100.895 149.105 100 148 100H125Z"/>
</mask>
<path fill-rule="evenodd" clip-rule="evenodd" d="M125 100C123.895 100 123 100.895 123 102V115.364V121V155.636C123 158.046 124.954 160 127.364 160H222.636C225.046 160 227 158.046 227 155.636V115.364C227 112.954 225.046 111 222.636 111H150V102C150 100.895 149.105 100 148 100H125Z" fill="white"/>
<path d="M150 111H148V113H150V111ZM125 102V102V98C122.791 98 121 99.7909 121 102H125ZM125 115.364V102H121V115.364H125ZM125 121V115.364H121V121H125ZM125 155.636V121H121V155.636H125ZM127.364 158C126.058 158 125 156.942 125 155.636H121C121 159.151 123.849 162 127.364 162V158ZM222.636 158H127.364V162H222.636V158ZM225 155.636C225 156.942 223.942 158 222.636 158V162C226.151 162 229 159.151 229 155.636H225ZM225 115.364V155.636H229V115.364H225ZM222.636 113C223.942 113 225 114.058 225 115.364H229C229 111.849 226.151 109 222.636 109V113ZM150 113H222.636V109H150V113ZM148 102V111H152V102H148ZM148 102H152C152 99.7909 150.209 98 148 98V102ZM125 102H148V98H125V102Z" fill="#E8E9EB" mask="url(#path-10-inside-1)"/>
<rect x="14" y="57" width="34" height="4" fill="#E8E9EB"/>
<rect x="110" y="57" width="34" height="4" fill="#E8E9EB"/>
<rect x="14" y="80" width="34" height="4" fill="#01B4FD"/>
<rect x="110" y="80" width="34" height="4" fill="#01B4FD"/>
<rect x="194" y="65" width="31" height="12" rx="2" fill="url(#paint1_linear)"/>
<rect x="194" y="31" width="31" height="8" rx="2" fill="#C4C4C4"/>
<rect x="129" y="105" width="15" height="3" fill="#01B4FD"/>
<rect x="154" y="105" width="15" height="3" fill="#C4C4C4"/>
<rect x="129" y="122" width="33" height="3" fill="#C4C4C4"/>
<rect x="168" y="122" width="33" height="3" fill="#C4C4C4"/>
<rect x="129" y="130" width="33" height="3" fill="#C4C4C4"/>
<rect x="19" y="108" width="33" height="3" fill="#C4C4C4"/>
<rect x="25" y="115" width="33" height="3" fill="#C4C4C4"/>
<rect x="33" y="122" width="33" height="3" fill="#C4C4C4"/>
<rect x="19" y="143" width="33" height="3" fill="#C4C4C4"/>
<rect x="25" y="150" width="33" height="3" fill="#C4C4C4"/>
<rect x="33" y="157" width="33" height="3" fill="#C4C4C4"/>
<rect x="25" y="129" width="33" height="3" fill="#C4C4C4"/>
<rect x="19" y="136" width="33" height="3" fill="#C4C4C4"/>
<rect x="168" y="130" width="33" height="3" fill="#C4C4C4"/>
<rect x="129" y="138" width="33" height="3" fill="#C4C4C4"/>
<rect x="168" y="138" width="33" height="3" fill="#C4C4C4"/>
<rect x="129" y="146" width="33" height="3" fill="#C4C4C4"/>
<rect x="168" y="146" width="33" height="3" fill="#C4C4C4"/>
</g>
<defs>
<linearGradient id="paint0_linear" x1="14.3103" y1="8" x2="14.3103" y2="22.6034" gradientUnits="userSpaceOnUse">
<stop stop-color="#00B8FF"/>
<stop offset="1" stop-color="#0098EB"/>
</linearGradient>
<linearGradient id="paint1_linear" x1="209.5" y1="65" x2="209.5" y2="77" gradientUnits="userSpaceOnUse">
<stop stop-color="#00B8FF"/>
<stop offset="1" stop-color="#0098EB"/>
</linearGradient>
<clipPath id="clip0">
<rect width="242" height="168.757" fill="white"/>
</clipPath>
</defs>
</svg>
